<svg width="215" height="206" viewBox="0 0 215 206" fill="none" xmlns="http://www.w3.org/2000/svg">
<path d="M117.88 6.4669L142.129 55.6949C143.816 59.1188 147.076 61.4912 150.848 62.0394L205.073 69.934C214.572 71.3179 218.362 83.0093 211.491 89.7178L172.254 128.036C169.527 130.701 168.28 134.542 168.926 138.303L178.187 192.411C179.811 201.887 169.881 209.112 161.387 204.642L112.888 179.097C109.516 177.323 105.484 177.323 102.112 179.097L53.613 204.642C45.1188 209.117 35.1894 201.887 36.8129 192.411L46.074 138.303C46.7198 134.542 45.4731 130.701 42.7463 128.036L3.50886 89.7178C-3.36184 83.0049 0.427807 71.3134 9.9266 69.934L64.1522 62.0394C67.9239 61.4912 71.1844 59.1188 72.8707 55.6949L97.12 6.4669C101.363 -2.15563 113.633 -2.15563 117.88 6.4669Z" fill="#F5B252"/>
</svg>
